<?xml version="1.0" encoding="utf-8"?><svg xmlns="http://www.w3.org/2000/svg" xmlns:xlink="http://www.w3.org/1999/xlink" width="1916" height="741" preserveAspectRatio="xMidYMid" viewBox="0 0 1916 741" style="z-index:1;margin-right:-2px;display:block;background-repeat-y:initial;background-repeat-x:initial;background-color:rgb(241, 242, 243);animation-play-state:paused" ><g transform="translate(958,370.5) scale(1,1) translate(-958,-370.5)" style="transform:matrix(1, 0, 0, 1, 0, 0);animation-play-state:paused" ><defs style="animation-play-state:paused" ><filter id="blur-e9toz5troke-1" x="-1" y="-1" width="3" height="3" style="animation-play-state:paused" ><feGaussianBlur stdDeviation="8.5" style="animation-play-state:paused" ></feGaussianBlur></filter>
<filter id="blur-e9toz5troke-2" x="-1" y="-1" width="3" height="3" style="animation-play-state:paused" ><feGaussianBlur stdDeviation="4.25" style="animation-play-state:paused" ></feGaussianBlur></filter>
<filter id="blur-e9toz5troke-3" x="-1" y="-1" width="3" height="3" style="animation-play-state:paused" ><feGaussianBlur stdDeviation="2.8333333333333335" style="animation-play-state:paused" ></feGaussianBlur></filter>
<filter id="blur-e9toz5troke-4" x="-1" y="-1" width="3" height="3" style="animation-play-state:paused" ><feGaussianBlur stdDeviation="2.125" style="animation-play-state:paused" ></feGaussianBlur></filter>
<filter id="blur-e9toz5troke-5" x="-1" y="-1" width="3" height="3" style="animation-play-state:paused" ><feGaussianBlur stdDeviation="1.7" style="animation-play-state:paused" ></feGaussianBlur></filter></defs>
<circle cx="484.07398642150656" cy="0" transform="matrix(1,0,0,1,0,268.2315368652344)" r="12.171789655735491" fill="#d62b93" opacity="0.527" filter="url(#blur-e9toz5troke-4)" style="transform:matrix(1, 0, 0, 1, 0, 268.232);opacity:0.527;animation-play-state:paused" ></circle>
<circle cx="1555.3368874687276" cy="0" transform="matrix(1,0,0,1,0,192.5025634765625)" r="10.914138253280242" fill="#d62b93" opacity="0.527" filter="url(#blur-e9toz5troke-4)" style="transform:matrix(1, 0, 0, 1, 0, 192.503);opacity:0.527;animation-play-state:paused" ></circle>
<circle cx="197.69853327328107" cy="0" transform="matrix(1,0,0,1,0,540.0833740234375)" r="6.136027322193982" fill="#469cf3" opacity="0.434" filter="url(#blur-e9toz5troke-2)" style="transform:matrix(1, 0, 0, 1, 0, 540.083);opacity:0.434;animation-play-state:paused" ></circle>
<circle cx="1255.887638977317" cy="0" transform="matrix(1,0,0,1,0,346.84539794921875)" r="15.552565067646059" fill="#469cf3" opacity="0.5456" style="transform:matrix(1, 0, 0, 1, 0, 346.845);opacity:0.5456;animation-play-state:paused" ></circle>
<circle cx="907.808844331824" cy="0" transform="matrix(1,0,0,1,0,546.5863037109375)" r="4.397674783058997" fill="#469cf3" opacity="0.248" filter="url(#blur-e9toz5troke-1)" style="transform:matrix(1, 0, 0, 1, 0, 546.586);opacity:0.248;animation-play-state:paused" ></circle>
<circle cx="710.9977901792332" cy="0" transform="matrix(1,0,0,1,0,364.2538146972656)" r="3.124188821667219" fill="#469cf3" opacity="0.248" filter="url(#blur-e9toz5troke-1)" style="transform:matrix(1, 0, 0, 1, 0, 364.254);opacity:0.248;animation-play-state:paused" ></circle>
<circle cx="341.25265825131873" cy="0" transform="matrix(1,0,0,1,0,80.16162109375)" r="13.137961956255547" fill="#469cf3" opacity="0.5456" style="transform:matrix(1, 0, 0, 1, 0, 80.1616);opacity:0.5456;animation-play-state:paused" ></circle>
<circle cx="827.28937140427" cy="0" transform="matrix(1,0,0,1,0,148.0863037109375)" r="12.875062191389901" fill="#469cf3" opacity="0.527" filter="url(#blur-e9toz5troke-4)" style="transform:matrix(1, 0, 0, 1, 0, 148.086);opacity:0.527;animation-play-state:paused" ></circle>
<circle cx="380.04214805136206" cy="0" transform="matrix(1,0,0,1,0,97.23724365234375)" r="13.122731613035207" fill="#469cf3" opacity="0.5456" style="transform:matrix(1, 0, 0, 1, 0, 97.2372);opacity:0.5456;animation-play-state:paused" ></circle>
<circle cx="1899.0948637251756" cy="0" transform="matrix(1,0,0,1,0,310.21087646484375)" r="2.712876074775892" fill="#469cf3" opacity="0.248" filter="url(#blur-e9toz5troke-1)" style="transform:matrix(1, 0, 0, 1, 0, 310.211);opacity:0.248;animation-play-state:paused" ></circle>
<circle cx="1196.47846570826" cy="0" transform="matrix(1,0,0,1,0,372.9742431640625)" r="9.197046739882923" fill="#469cf3" opacity="0.496" filter="url(#blur-e9toz5troke-3)" style="transform:matrix(1, 0, 0, 1, 0, 372.974);opacity:0.496;animation-play-state:paused" ></circle>
<circle cx="1193.65292912099" cy="0" transform="matrix(1,0,0,1,0,13.25048828125)" r="8.436696510450217" fill="#469cf3" opacity="0.496" filter="url(#blur-e9toz5troke-3)" style="transform:matrix(1, 0, 0, 1, 0, 13.2505);opacity:0.496;animation-play-state:paused" ></circle>
<circle cx="1366.290417555454" cy="0" transform="matrix(1,0,0,1,0,560.1328735351562)" r="14.868158582852814" fill="#469cf3" opacity="0.5456" style="transform:matrix(1, 0, 0, 1, 0, 560.133);opacity:0.5456;animation-play-state:paused" ></circle>
<circle cx="1581.5685116263635" cy="0" transform="matrix(1,0,0,1,0,451.2390441894531)" r="6.904505998644517" fill="#d62b93" opacity="0.434" filter="url(#blur-e9toz5troke-2)" style="transform:matrix(1, 0, 0, 1, 0, 451.239);opacity:0.434;animation-play-state:paused" ></circle>
<circle cx="1429.3960802528493" cy="0" transform="matrix(1,0,0,1,0,354.6549987792969)" r="13.811032753344811" fill="#469cf3" opacity="0.5456" style="transform:matrix(1, 0, 0, 1, 0, 354.655);opacity:0.5456;animation-play-state:paused" ></circle>
<circle cx="1006.080679889164" cy="0" transform="matrix(1,0,0,1,0,324.50433349609375)" r="4.804470143891017" fill="#469cf3" opacity="0.248" filter="url(#blur-e9toz5troke-1)" style="transform:matrix(1, 0, 0, 1, 0, 324.504);opacity:0.248;animation-play-state:paused" ></circle>
<circle cx="80.84972705143049" cy="0" transform="matrix(1,0,0,1,0,393.75067138671875)" r="10.026148874397911" fill="#469cf3" opacity="0.496" filter="url(#blur-e9toz5troke-3)" style="transform:matrix(1, 0, 0, 1, 0, 393.751);opacity:0.496;animation-play-state:paused" ></circle>
<circle cx="469.73184117591506" cy="0" transform="matrix(1,0,0,1,0,293.6484375)" r="7.2979164404318295" fill="#469cf3" opacity="0.434" filter="url(#blur-e9toz5troke-2)" style="transform:matrix(1, 0, 0, 1, 0, 293.648);opacity:0.434;animation-play-state:paused" ></circle>
<circle cx="536.152770122705" cy="0" transform="matrix(1,0,0,1,0,417.2346496582031)" r="11.668244564297122" fill="#469cf3" opacity="0.527" filter="url(#blur-e9toz5troke-4)" style="transform:matrix(1, 0, 0, 1, 0, 417.235);opacity:0.527;animation-play-state:paused" ></circle>
<circle cx="343.2655628522152" cy="0" transform="matrix(1,0,0,1,0,562.1710815429688)" r="11.211685705734633" fill="#d62b93" opacity="0.527" filter="url(#blur-e9toz5troke-4)" style="transform:matrix(1, 0, 0, 1, 0, 562.171);opacity:0.527;animation-play-state:paused" ></circle>
<circle cx="1165.9852974047553" cy="0" transform="matrix(1,0,0,1,0,156.866943359375)" r="4.099378119149791" fill="#d62b93" opacity="0.248" filter="url(#blur-e9toz5troke-1)" style="transform:matrix(1, 0, 0, 1, 0, 156.867);opacity:0.248;animation-play-state:paused" ></circle>
<circle cx="1115.4702224769148" cy="0" transform="matrix(1,0,0,1,0,171.74310302734375)" r="3.288672295110339" fill="#d62b93" opacity="0.248" filter="url(#blur-e9toz5troke-1)" style="transform:matrix(1, 0, 0, 1, 0, 171.743);opacity:0.248;animation-play-state:paused" ></circle>
<circle cx="1379.8904653218046" cy="0" transform="matrix(1,0,0,1,0,526.4342041015625)" r="10.625190297823902" fill="#469cf3" opacity="0.527" filter="url(#blur-e9toz5troke-4)" style="transform:matrix(1, 0, 0, 1, 0, 526.434);opacity:0.527;animation-play-state:paused" ></circle>
<circle cx="367.7355778442871" cy="0" transform="matrix(1,0,0,1,0,408.6763000488281)" r="2.986668376858973" fill="#469cf3" opacity="0.248" filter="url(#blur-e9toz5troke-1)" style="transform:matrix(1, 0, 0, 1, 0, 408.676);opacity:0.248;animation-play-state:paused" ></circle>
<circle cx="123.36706537035845" cy="0" transform="matrix(1,0,0,1,0,709.970703125)" r="5.95133439416489" fill="#469cf3" opacity="0.434" filter="url(#blur-e9toz5troke-2)" style="transform:matrix(1, 0, 0, 1, 0, 709.971);opacity:0.434;animation-play-state:paused" ></circle>
<circle cx="813.3313629383366" cy="0" transform="matrix(1,0,0,1,0,600.2039794921875)" r="5.565235404772877" fill="#d62b93" opacity="0.434" filter="url(#blur-e9toz5troke-2)" style="transform:matrix(1, 0, 0, 1, 0, 600.204);opacity:0.434;animation-play-state:paused" ></circle>
<circle cx="955.8121012682407" cy="0" transform="matrix(1,0,0,1,0,312.40777587890625)" r="11.711850207214297" fill="#d62b93" opacity="0.527" filter="url(#blur-e9toz5troke-4)" style="transform:matrix(1, 0, 0, 1, 0, 312.408);opacity:0.527;animation-play-state:paused" ></circle>
<circle cx="1654.8613378477335" cy="0" transform="matrix(1,0,0,1,0,341.5169372558594)" r="12.402203744116889" fill="#d62b93" opacity="0.527" filter="url(#blur-e9toz5troke-4)" style="transform:matrix(1, 0, 0, 1, 0, 341.517);opacity:0.527;animation-play-state:paused" ></circle>
<circle cx="1320.6844956371451" cy="0" transform="matrix(1,0,0,1,0,89.19036865234375)" r="12.265001111530125" fill="#469cf3" opacity="0.527" filter="url(#blur-e9toz5troke-4)" style="transform:matrix(1, 0, 0, 1, 0, 89.1904);opacity:0.527;animation-play-state:paused" ></circle>
<circle cx="1802.2353615730249" cy="0" transform="matrix(1,0,0,1,0,326.4241027832031)" r="13.219201835613296" fill="#469cf3" opacity="0.5456" style="transform:matrix(1, 0, 0, 1, 0, 326.424);opacity:0.5456;animation-play-state:paused" ></circle>
<circle cx="1148.2504760875688" cy="0" transform="matrix(1,0,0,1,0,447.96923828125)" r="12.971054250199234" fill="#469cf3" opacity="0.527" filter="url(#blur-e9toz5troke-4)" style="transform:matrix(1, 0, 0, 1, 0, 447.969);opacity:0.527;animation-play-state:paused" ></circle>
<circle cx="1595.1386470925988" cy="0" transform="matrix(1,0,0,1,0,397.9137268066406)" r="11.335190828682217" fill="#d62b93" opacity="0.527" filter="url(#blur-e9toz5troke-4)" style="transform:matrix(1, 0, 0, 1, 0, 397.914);opacity:0.527;animation-play-state:paused" ></circle>
<circle cx="58.304584024603294" cy="0" transform="matrix(1,0,0,1,0,200.0989990234375)" r="11.717815036567359" fill="#469cf3" opacity="0.527" filter="url(#blur-e9toz5troke-4)" style="transform:matrix(1, 0, 0, 1, 0, 200.099);opacity:0.527;animation-play-state:paused" ></circle>
<circle cx="954.3799918251693" cy="0" transform="matrix(1,0,0,1,0,345.88397216796875)" r="6.147295719766831" fill="#d62b93" opacity="0.434" filter="url(#blur-e9toz5troke-2)" style="transform:matrix(1, 0, 0, 1, 0, 345.884);opacity:0.434;animation-play-state:paused" ></circle>
<circle cx="1464.4430651491905" cy="0" transform="matrix(1,0,0,1,0,607.554931640625)" r="14.804367049189006" fill="#d62b93" opacity="0.5456" style="transform:matrix(1, 0, 0, 1, 0, 607.555);opacity:0.5456;animation-play-state:paused" ></circle>
<circle cx="1010.0737442216168" cy="0" transform="matrix(1,0,0,1,0,109.46343994140625)" r="7.800959572217634" fill="#469cf3" opacity="0.496" filter="url(#blur-e9toz5troke-3)" style="transform:matrix(1, 0, 0, 1, 0, 109.463);opacity:0.496;animation-play-state:paused" ></circle>
<circle cx="1077.6788037760766" cy="0" transform="matrix(1,0,0,1,0,239.83380126953125)" r="12.459075825110652" fill="#469cf3" opacity="0.527" filter="url(#blur-e9toz5troke-4)" style="transform:matrix(1, 0, 0, 1, 0, 239.834);opacity:0.527;animation-play-state:paused" ></circle>
<circle cx="83.76935948064795" cy="0" transform="matrix(1,0,0,1,0,316.46826171875)" r="5.136722690431993" fill="#469cf3" opacity="0.248" filter="url(#blur-e9toz5troke-1)" style="transform:matrix(1, 0, 0, 1, 0, 316.468);opacity:0.248;animation-play-state:paused" ></circle>
<circle cx="1256.41584124023" cy="0" transform="matrix(1,0,0,1,0,547.4600219726562)" r="11.680295417541684" fill="#d62b93" opacity="0.527" filter="url(#blur-e9toz5troke-4)" style="transform:matrix(1, 0, 0, 1, 0, 547.46);opacity:0.527;animation-play-state:paused" ></circle>
<circle cx="204.0352825385489" cy="0" transform="matrix(1,0,0,1,0,52.68121337890625)" r="5.834394156326432" fill="#d62b93" opacity="0.434" filter="url(#blur-e9toz5troke-2)" style="transform:matrix(1, 0, 0, 1, 0, 52.6812);opacity:0.434;animation-play-state:paused" ></circle>
<circle cx="190.55368615874474" cy="0" transform="matrix(1,0,0,1,0,558.4678955078125)" r="5.685671464009612" fill="#469cf3" opacity="0.434" filter="url(#blur-e9toz5troke-2)" style="transform:matrix(1, 0, 0, 1, 0, 558.468);opacity:0.434;animation-play-state:paused" ></circle>
<circle cx="1568.8298601174777" cy="0" transform="matrix(1,0,0,1,0,694.1192626953125)" r="10.20581852210696" fill="#469cf3" opacity="0.496" filter="url(#blur-e9toz5troke-3)" style="transform:matrix(1, 0, 0, 1, 0, 694.119);opacity:0.496;animation-play-state:paused" ></circle>
<circle cx="1832.3868799575596" cy="0" transform="matrix(1,0,0,1,0,421.0657958984375)" r="15.527893922159341" fill="#d62b93" opacity="0.5456" style="transform:matrix(1, 0, 0, 1, 0, 421.066);opacity:0.5456;animation-play-state:paused" ></circle>
<circle cx="151.11311946205734" cy="0" transform="matrix(1,0,0,1,0,421.4914245605469)" r="4.529198267797583" fill="#d62b93" opacity="0.248" filter="url(#blur-e9toz5troke-1)" style="transform:matrix(1, 0, 0, 1, 0, 421.491);opacity:0.248;animation-play-state:paused" ></circle>
<circle cx="870.554800812024" cy="0" transform="matrix(1,0,0,1,0,329.5164794921875)" r="2.9288492745745995" fill="#469cf3" opacity="0.248" filter="url(#blur-e9toz5troke-1)" style="transform:matrix(1, 0, 0, 1, 0, 329.516);opacity:0.248;animation-play-state:paused" ></circle>
<circle cx="1773.44000316504" cy="0" transform="matrix(1,0,0,1,0,305.061279296875)" r="13.004201311208192" fill="#d62b93" opacity="0.5456" style="transform:matrix(1, 0, 0, 1, 0, 305.061);opacity:0.5456;animation-play-state:paused" ></circle>
<circle cx="686.6903791012048" cy="0" transform="matrix(1,0,0,1,0,583.9231567382812)" r="8.091618447196707" fill="#d62b93" opacity="0.496" filter="url(#blur-e9toz5troke-3)" style="transform:matrix(1, 0, 0, 1, 0, 583.923);opacity:0.496;animation-play-state:paused" ></circle>
<circle cx="287.16933959003757" cy="0" transform="matrix(1,0,0,1,0,459.15850830078125)" r="12.194294945440253" fill="#469cf3" opacity="0.527" filter="url(#blur-e9toz5troke-4)" style="transform:matrix(1, 0, 0, 1, 0, 459.158);opacity:0.527;animation-play-state:paused" ></circle>
<circle cx="139.96464616752704" cy="0" transform="matrix(1,0,0,1,0,89.83917236328125)" r="3.4201287463774452" fill="#469cf3" opacity="0.248" filter="url(#blur-e9toz5troke-1)" style="transform:matrix(1, 0, 0, 1, 0, 89.8392);opacity:0.248;animation-play-state:paused" ></circle>
<circle cx="1338.3619456052515" cy="0" transform="matrix(1,0,0,1,0,525.6223754882812)" r="10.540701031837152" fill="#469cf3" opacity="0.527" filter="url(#blur-e9toz5troke-4)" style="transform:matrix(1, 0, 0, 1, 0, 525.622);opacity:0.527;animation-play-state:paused" ></circle>
<circle cx="505.3154399934805" cy="0" transform="matrix(1,0,0,1,0,596.609130859375)" r="7.932993561493628" fill="#d62b93" opacity="0.496" filter="url(#blur-e9toz5troke-3)" style="transform:matrix(1, 0, 0, 1, 0, 596.609);opacity:0.496;animation-play-state:paused" ></circle>
<circle cx="291.65687001517637" cy="0" transform="matrix(1,0,0,1,0,33.05889892578125)" r="12.375331522899902" fill="#d62b93" opacity="0.527" filter="url(#blur-e9toz5troke-4)" style="transform:matrix(1, 0, 0, 1, 0, 33.0589);opacity:0.527;animation-play-state:paused" ></circle>
<circle cx="1189.481650014287" cy="0" transform="matrix(1,0,0,1,0,520.1491088867188)" r="5.930479082552724" fill="#d62b93" opacity="0.434" filter="url(#blur-e9toz5troke-2)" style="transform:matrix(1, 0, 0, 1, 0, 520.149);opacity:0.434;animation-play-state:paused" ></circle>
<circle cx="1183.4604720292489" cy="0" transform="matrix(1,0,0,1,0,134.38580322265625)" r="13.898262839831089" fill="#469cf3" opacity="0.5456" style="transform:matrix(1, 0, 0, 1, 0, 134.386);opacity:0.5456;animation-play-state:paused" ></circle>
<circle cx="387.20901857784787" cy="0" transform="matrix(1,0,0,1,0,541.57275390625)" r="6.035293056472568" fill="#d62b93" opacity="0.434" filter="url(#blur-e9toz5troke-2)" style="transform:matrix(1, 0, 0, 1, 0, 541.573);opacity:0.434;animation-play-state:paused" ></circle>
<circle cx="202.09386133054906" cy="0" transform="matrix(1,0,0,1,0,407.93426513671875)" r="12.471651673417636" fill="#469cf3" opacity="0.527" filter="url(#blur-e9toz5troke-4)" style="transform:matrix(1, 0, 0, 1, 0, 407.934);opacity:0.527;animation-play-state:paused" ></circle>
<circle cx="283.06779926980823" cy="0" transform="matrix(1,0,0,1,0,669.6005859375)" r="3.460736732612877" fill="#469cf3" opacity="0.248" filter="url(#blur-e9toz5troke-1)" style="transform:matrix(1, 0, 0, 1, 0, 669.601);opacity:0.248;animation-play-state:paused" ></circle>
<circle cx="1455.9654713132654" cy="0" transform="matrix(1,0,0,1,0,263.1241455078125)" r="10.371331252988002" fill="#469cf3" opacity="0.496" filter="url(#blur-e9toz5troke-3)" style="transform:matrix(1, 0, 0, 1, 0, 263.124);opacity:0.496;animation-play-state:paused" ></circle>
<circle cx="1730.6848128232127" cy="0" transform="matrix(1,0,0,1,0,343.77899169921875)" r="11.216591281612645" fill="#469cf3" opacity="0.527" filter="url(#blur-e9toz5troke-4)" style="transform:matrix(1, 0, 0, 1, 0, 343.779);opacity:0.527;animation-play-state:paused" ></circle>
<circle cx="1482.4460626649602" cy="0" transform="matrix(1,0,0,1,0,280.1385192871094)" r="7.165048530908621" fill="#469cf3" opacity="0.434" filter="url(#blur-e9toz5troke-2)" style="transform:matrix(1, 0, 0, 1, 0, 280.139);opacity:0.434;animation-play-state:paused" ></circle>
<circle cx="1477.40516106538" cy="0" transform="matrix(1,0,0,1,0,727.4192504882812)" r="5.484900526975726" fill="#469cf3" opacity="0.434" filter="url(#blur-e9toz5troke-2)" style="transform:matrix(1, 0, 0, 1, 0, 727.419);opacity:0.434;animation-play-state:paused" ></circle>
<circle cx="1605.6965461121788" cy="0" transform="matrix(1,0,0,1,0,185.74200439453125)" r="9.40425859272558" fill="#469cf3" opacity="0.496" filter="url(#blur-e9toz5troke-3)" style="transform:matrix(1, 0, 0, 1, 0, 185.742);opacity:0.496;animation-play-state:paused" ></circle>
<circle cx="1635.155008610583" cy="0" transform="matrix(1,0,0,1,0,173.25335693359375)" r="2.831884052746713" fill="#d62b93" opacity="0.248" filter="url(#blur-e9toz5troke-1)" style="transform:matrix(1, 0, 0, 1, 0, 173.253);opacity:0.248;animation-play-state:paused" ></circle>
<circle cx="1652.772275293862" cy="0" transform="matrix(1,0,0,1,0,12.84759521484375)" r="12.268011357894178" fill="#d62b93" opacity="0.527" filter="url(#blur-e9toz5troke-4)" style="transform:matrix(1, 0, 0, 1, 0, 12.8476);opacity:0.527;animation-play-state:paused" ></circle>
<circle cx="440.1919372533684" cy="0" transform="matrix(1,0,0,1,0,699.3101806640625)" r="13.234828217920525" fill="#469cf3" opacity="0.5456" style="transform:matrix(1, 0, 0, 1, 0, 699.31);opacity:0.5456;animation-play-state:paused" ></circle>
<circle cx="748.2582474909399" cy="0" transform="matrix(1,0,0,1,0,605.6029052734375)" r="15.287595664265526" fill="#469cf3" opacity="0.5456" style="transform:matrix(1, 0, 0, 1, 0, 605.603);opacity:0.5456;animation-play-state:paused" ></circle>
<circle cx="45.430849568703984" cy="0" transform="matrix(1,0,0,1,0,557.4293212890625)" r="13.585534377195591" fill="#d62b93" opacity="0.5456" style="transform:matrix(1, 0, 0, 1, 0, 557.429);opacity:0.5456;animation-play-state:paused" ></circle>
<circle cx="172.11664884388742" cy="0" transform="matrix(1,0,0,1,0,606.8278198242188)" r="4.100715394282237" fill="#469cf3" opacity="0.248" filter="url(#blur-e9toz5troke-1)" style="transform:matrix(1, 0, 0, 1, 0, 606.828);opacity:0.248;animation-play-state:paused" ></circle>
<circle cx="420.0644395876459" cy="0" transform="matrix(1,0,0,1,0,167.112548828125)" r="8.849713531799672" fill="#469cf3" opacity="0.496" filter="url(#blur-e9toz5troke-3)" style="transform:matrix(1, 0, 0, 1, 0, 167.113);opacity:0.496;animation-play-state:paused" ></circle>
<circle cx="970.4726852963776" cy="0" transform="matrix(1,0,0,1,0,271.33160400390625)" r="15.008306921687163" fill="#469cf3" opacity="0.5456" style="transform:matrix(1, 0, 0, 1, 0, 271.332);opacity:0.5456;animation-play-state:paused" ></circle>
<circle cx="1864.2430126959175" cy="0" transform="matrix(1,0,0,1,0,705.2593383789062)" r="9.042922229621727" fill="#469cf3" opacity="0.496" filter="url(#blur-e9toz5troke-3)" style="transform:matrix(1, 0, 0, 1, 0, 705.259);opacity:0.496;animation-play-state:paused" ></circle>
<circle cx="660.6431520943077" cy="0" transform="matrix(1,0,0,1,0,505.94244384765625)" r="12.88735361991909" fill="#d62b93" opacity="0.527" filter="url(#blur-e9toz5troke-4)" style="transform:matrix(1, 0, 0, 1, 0, 505.942);opacity:0.527;animation-play-state:paused" ></circle>
<circle cx="471.34730815482067" cy="0" transform="matrix(1,0,0,1,0,707.2992553710938)" r="14.492460274083593" fill="#469cf3" opacity="0.5456" style="transform:matrix(1, 0, 0, 1, 0, 707.299);opacity:0.5456;animation-play-state:paused" ></circle>
<circle cx="1539.072482083486" cy="0" transform="matrix(1,0,0,1,0,384.27734375)" r="3.1256547143578124" fill="#d62b93" opacity="0.248" filter="url(#blur-e9toz5troke-1)" style="transform:matrix(1, 0, 0, 1, 0, 384.277);opacity:0.248;animation-play-state:paused" ></circle>
<circle cx="996.5601877165196" cy="0" transform="matrix(1,0,0,1,0,37.7340087890625)" r="3.191810328519307" fill="#469cf3" opacity="0.248" filter="url(#blur-e9toz5troke-1)" style="transform:matrix(1, 0, 0, 1, 0, 37.734);opacity:0.248;animation-play-state:paused" ></circle>
<circle cx="404.6337373420139" cy="0" transform="matrix(1,0,0,1,0,204.00701904296875)" r="4.670047235086703" fill="#d62b93" opacity="0.248" filter="url(#blur-e9toz5troke-1)" style="transform:matrix(1, 0, 0, 1, 0, 204.007);opacity:0.248;animation-play-state:paused" ></circle>
<circle cx="1058.943831218298" cy="0" transform="matrix(1,0,0,1,0,191.29345703125)" r="5.956629643871821" fill="#469cf3" opacity="0.434" filter="url(#blur-e9toz5troke-2)" style="transform:matrix(1, 0, 0, 1, 0, 191.293);opacity:0.434;animation-play-state:paused" ></circle>
<circle cx="1752.3141450386793" cy="0" transform="matrix(1,0,0,1,0,691.331787109375)" r="9.978734236186348" fill="#469cf3" opacity="0.496" filter="url(#blur-e9toz5troke-3)" style="transform:matrix(1, 0, 0, 1, 0, 691.332);opacity:0.496;animation-play-state:paused" ></circle>
<circle cx="1893.4678277284027" cy="0" transform="matrix(1,0,0,1,0,-1.45733642578125)" r="5.269991208153105" fill="#469cf3" opacity="0.434" filter="url(#blur-e9toz5troke-2)" style="transform:matrix(1, 0, 0, 1, 0, -1.45734);opacity:0.434;animation-play-state:paused" ></circle>
<circle cx="871.9851350640004" cy="0" transform="matrix(1,0,0,1,0,15.14990234375)" r="4.793225749381683" fill="#469cf3" opacity="0.248" filter="url(#blur-e9toz5troke-1)" style="transform:matrix(1, 0, 0, 1, 0, 15.1499);opacity:0.248;animation-play-state:paused" ></circle>
<circle cx="806.1811544591842" cy="0" transform="matrix(1,0,0,1,0,563.2991943359375)" r="3.073961457991539" fill="#469cf3" opacity="0.248" filter="url(#blur-e9toz5troke-1)" style="transform:matrix(1, 0, 0, 1, 0, 563.299);opacity:0.248;animation-play-state:paused" ></circle>
<circle cx="577.8261524652418" cy="0" transform="matrix(1,0,0,1,0,458.6366882324219)" r="3.0663219220116456" fill="#469cf3" opacity="0.248" filter="url(#blur-e9toz5troke-1)" style="transform:matrix(1, 0, 0, 1, 0, 458.637);opacity:0.248;animation-play-state:paused" ></circle>
<circle cx="311.41515991031997" cy="0" transform="matrix(1,0,0,1,0,445.5543518066406)" r="2.7464396274728573" fill="#469cf3" opacity="0.248" filter="url(#blur-e9toz5troke-1)" style="transform:matrix(1, 0, 0, 1, 0, 445.554);opacity:0.248;animation-play-state:paused" ></circle>
<circle cx="1032.697710339702" cy="0" transform="matrix(1,0,0,1,0,619.6724243164062)" r="9.943838081907659" fill="#469cf3" opacity="0.496" filter="url(#blur-e9toz5troke-3)" style="transform:matrix(1, 0, 0, 1, 0, 619.672);opacity:0.496;animation-play-state:paused" ></circle>
<circle cx="321.2901289203524" cy="0" transform="matrix(1,0,0,1,0,649.9358520507812)" r="9.783481556660483" fill="#469cf3" opacity="0.496" filter="url(#blur-e9toz5troke-3)" style="transform:matrix(1, 0, 0, 1, 0, 649.936);opacity:0.496;animation-play-state:paused" ></circle>
<circle cx="8.908335590753774" cy="0" transform="matrix(1,0,0,1,0,677.839111328125)" r="12.162144725453745" fill="#d62b93" opacity="0.527" filter="url(#blur-e9toz5troke-4)" style="transform:matrix(1, 0, 0, 1, 0, 677.839);opacity:0.527;animation-play-state:paused" ></circle>
<circle cx="338.504766378884" cy="0" transform="matrix(1,0,0,1,0,155.69091796875)" r="5.15587411623717" fill="#469cf3" opacity="0.248" filter="url(#blur-e9toz5troke-1)" style="transform:matrix(1, 0, 0, 1, 0, 155.691);opacity:0.248;animation-play-state:paused" ></circle>
<circle cx="1589.9694751182308" cy="0" transform="matrix(1,0,0,1,0,144.0712890625)" r="9.912758365203626" fill="#d62b93" opacity="0.496" filter="url(#blur-e9toz5troke-3)" style="transform:matrix(1, 0, 0, 1, 0, 144.071);opacity:0.496;animation-play-state:paused" ></circle>
<circle cx="1526.2292653666857" cy="0" transform="matrix(1,0,0,1,0,440.0931396484375)" r="12.547125059981555" fill="#469cf3" opacity="0.527" filter="url(#blur-e9toz5troke-4)" style="transform:matrix(1, 0, 0, 1, 0, 440.093);opacity:0.527;animation-play-state:paused" ></circle>
<circle cx="1560.0981676286196" cy="0" transform="matrix(1,0,0,1,0,440.6828308105469)" r="10.77307663062467" fill="#469cf3" opacity="0.527" filter="url(#blur-e9toz5troke-4)" style="transform:matrix(1, 0, 0, 1, 0, 440.683);opacity:0.527;animation-play-state:paused" ></circle>
<circle cx="405.8477534817449" cy="0" transform="matrix(1,0,0,1,0,400.63458251953125)" r="15.218360195827836" fill="#469cf3" opacity="0.5456" style="transform:matrix(1, 0, 0, 1, 0, 400.635);opacity:0.5456;animation-play-state:paused" ></circle>
<circle cx="1581.2775217032213" cy="0" transform="matrix(1,0,0,1,0,110.13275146484375)" r="14.772137493857063" fill="#469cf3" opacity="0.5456" style="transform:matrix(1, 0, 0, 1, 0, 110.133);opacity:0.5456;animation-play-state:paused" ></circle></g></svg>